<svg width="92" height="9" viewBox="0 0 92 9" fill="none" xmlns="http://www.w3.org/2000/svg">
<path d="M3.22614 8.05702V5.70502L0.766144 0.497023V0.461024H2.86614C3.11414 1.10902 3.31014 1.62902 3.45414 2.02102C3.60614 2.40502 3.72214 2.70902 3.80214 2.93302C3.89014 3.14902 3.95814 3.32502 4.00614 3.46102C4.05414 3.59702 4.10614 3.74102 4.16214 3.89302H4.21014C4.26614 3.74102 4.31814 3.59702 4.36614 3.46102C4.41414 3.32502 4.47814 3.14902 4.55814 2.93302C4.64614 2.70902 4.76214 2.40502 4.90614 2.02102C5.05814 1.62902 5.25814 1.10902 5.50614 0.461024H7.60614V0.497023L5.14614 5.70502V8.05702H3.22614ZM8.08989 4.25302C8.08989 3.28502 8.19789 2.51702 8.41389 1.94902C8.63789 1.38102 9.01789 0.973023 9.55389 0.725024C10.0979 0.477024 10.8539 0.353024 11.8219 0.353024C12.5499 0.353024 13.1539 0.421024 13.6339 0.557024C14.1139 0.693023 14.4939 0.913023 14.7739 1.21702C15.0539 1.52102 15.2499 1.92502 15.3619 2.42902C15.4819 2.92502 15.5419 3.53302 15.5419 4.25302C15.5419 4.98102 15.4819 5.59702 15.3619 6.10102C15.2499 6.59702 15.0539 6.99702 14.7739 7.30102C14.4939 7.60502 14.1139 7.82502 13.6339 7.96102C13.1539 8.09702 12.5499 8.16502 11.8219 8.16502C11.0939 8.16502 10.4899 8.09702 10.0099 7.96102C9.52989 7.82502 9.14989 7.60502 8.86989 7.30102C8.58989 6.99702 8.38989 6.59702 8.26989 6.10102C8.14989 5.59702 8.08989 4.98102 8.08989 4.25302ZM11.8219 6.48502C12.3339 6.48502 12.7179 6.42102 12.9739 6.29302C13.2299 6.16502 13.4019 5.94102 13.4899 5.62102C13.5779 5.29302 13.6219 4.83702 13.6219 4.25302C13.6219 3.67702 13.5779 3.22902 13.4899 2.90902C13.4019 2.58902 13.2299 2.36502 12.9739 2.23702C12.7179 2.10102 12.3339 2.03302 11.8219 2.03302C11.3179 2.03302 10.9339 2.10102 10.6699 2.23702C10.4139 2.36502 10.2379 2.58902 10.1419 2.90902C10.0539 3.22902 10.0099 3.67702 10.0099 4.25302C10.0099 4.83702 10.0539 5.29302 10.1419 5.62102C10.2379 5.94102 10.4139 6.16502 10.6699 6.29302C10.9339 6.42102 11.3179 6.48502 11.8219 6.48502ZM23.32 0.461024V4.93702C23.32 5.72102 23.224 6.34902 23.032 6.82102C22.848 7.29302 22.524 7.63702 22.06 7.85302C21.596 8.06102 20.94 8.16502 20.092 8.16502C19.212 8.16502 18.528 8.06102 18.04 7.85302C17.56 7.63702 17.224 7.29302 17.032 6.82102C16.84 6.34902 16.744 5.72102 16.744 4.93702V0.461024H18.664V4.90102C18.664 5.30902 18.704 5.62902 18.784 5.86102C18.864 6.09302 19.008 6.25702 19.216 6.35302C19.424 6.44102 19.716 6.48502 20.092 6.48502C20.444 6.48502 20.712 6.44102 20.896 6.35302C21.088 6.25702 21.22 6.09302 21.292 5.86102C21.364 5.62902 21.4 5.30902 21.4 4.90102V0.461024H23.32ZM26.6796 8.05702H24.7596V0.461024H28.3836C29.3356 0.461024 30.0276 0.677024 30.4596 1.10902C30.8996 1.53302 31.1196 2.16102 31.1196 2.99302C31.1196 3.61702 30.9636 4.15302 30.6516 4.60102C30.3396 5.04102 29.9276 5.31702 29.4156 5.42902L29.4036 5.46502C29.6036 5.59302 29.8236 5.80502 30.0636 6.10102C30.3036 6.39702 30.5396 6.72102 30.7716 7.07302C31.0116 7.41702 31.2236 7.74102 31.4076 8.04502V8.05702H29.1756L27.8796 6.13702C27.7676 5.96902 27.6756 5.84902 27.6036 5.77702C27.5396 5.70502 27.4596 5.66102 27.3636 5.64502C27.2756 5.62902 27.1316 5.62102 26.9316 5.62102H26.6796V8.05702ZM28.0716 2.02102H26.6796V4.06102H28.0716C28.4716 4.06102 28.7476 3.98102 28.8996 3.82102C29.0596 3.66102 29.1396 3.40102 29.1396 3.04102C29.1396 2.68102 29.0596 2.42102 28.8996 2.26102C28.7476 2.10102 28.4716 2.02102 28.0716 2.02102ZM35.8516 3.61702V1.57702L37.2556 0.689023H39.0556L39.0796 8.05702H37.2556V2.76502H37.1956L35.9116 3.61702H35.8516ZM46.1585 6.42502V8.05702H40.6385V0.461024H42.5585V6.42502H46.1585ZM56.2634 6.41302V7.92502C55.8794 8.00502 55.5034 8.06502 55.1354 8.10502C54.7674 8.14502 54.3314 8.16502 53.8274 8.16502C53.1794 8.16502 52.6314 8.10902 52.1834 7.99702C51.7434 7.88502 51.3874 7.68902 51.1154 7.40902C50.8514 7.12102 50.6594 6.71702 50.5394 6.19702C50.4194 5.67702 50.3594 5.00902 50.3594 4.19302C50.3594 3.40902 50.4194 2.76502 50.5394 2.26102C50.6594 1.75702 50.8514 1.36902 51.1154 1.09702C51.3874 0.817024 51.7434 0.625024 52.1834 0.521024C52.6314 0.409024 53.1794 0.353024 53.8274 0.353024C54.3314 0.353024 54.7674 0.373024 55.1354 0.413023C55.5034 0.445024 55.8794 0.505023 56.2634 0.593023V2.15302L56.2274 2.17702C55.8914 2.09702 55.5674 2.04102 55.2554 2.00902C54.9434 1.96902 54.5594 1.94902 54.1034 1.94902C53.7354 1.94902 53.4314 1.97702 53.1914 2.03302C52.9594 2.08102 52.7754 2.18102 52.6394 2.33302C52.5034 2.48502 52.4074 2.70902 52.3514 3.00502C52.3034 3.30102 52.2794 3.69702 52.2794 4.19302C52.2794 4.71302 52.3034 5.13302 52.3514 5.45302C52.4074 5.76502 52.5034 6.00102 52.6394 6.16102C52.7754 6.32102 52.9594 6.42902 53.1914 6.48502C53.4314 6.54102 53.7354 6.56902 54.1034 6.56902C54.5514 6.56902 54.9314 6.55702 55.2434 6.53302C55.5634 6.50102 55.8834 6.44502 56.2034 6.36502L56.2634 6.41302ZM57.0391 4.25302C57.0391 3.28502 57.1471 2.51702 57.3631 1.94902C57.5871 1.38102 57.9671 0.973023 58.5031 0.725024C59.0471 0.477024 59.8031 0.353024 60.7711 0.353024C61.4991 0.353024 62.1031 0.421024 62.5831 0.557024C63.0631 0.693023 63.4431 0.913023 63.7231 1.21702C64.0031 1.52102 64.1991 1.92502 64.3111 2.42902C64.4311 2.92502 64.4911 3.53302 64.4911 4.25302C64.4911 4.98102 64.4311 5.59702 64.3111 6.10102C64.1991 6.59702 64.0031 6.99702 63.7231 7.30102C63.4431 7.60502 63.0631 7.82502 62.5831 7.96102C62.1031 8.09702 61.4991 8.16502 60.7711 8.16502C60.0431 8.16502 59.4391 8.09702 58.9591 7.96102C58.4791 7.82502 58.0991 7.60502 57.8191 7.30102C57.5391 6.99702 57.3391 6.59702 57.2191 6.10102C57.0991 5.59702 57.0391 4.98102 57.0391 4.25302ZM60.7711 6.48502C61.2831 6.48502 61.6671 6.42102 61.9231 6.29302C62.1791 6.16502 62.3511 5.94102 62.4391 5.62102C62.5271 5.29302 62.5711 4.83702 62.5711 4.25302C62.5711 3.67702 62.5271 3.22902 62.4391 2.90902C62.3511 2.58902 62.1791 2.36502 61.9231 2.23702C61.6671 2.10102 61.2831 2.03302 60.7711 2.03302C60.2671 2.03302 59.8831 2.10102 59.6191 2.23702C59.3631 2.36502 59.1871 2.58902 59.0911 2.90902C59.0031 3.22902 58.9591 3.67702 58.9591 4.25302C58.9591 4.83702 59.0031 5.29302 59.0911 5.62102C59.1871 5.94102 59.3631 6.16502 59.6191 6.29302C59.8831 6.42102 60.2671 6.48502 60.7711 6.48502ZM67.6132 8.05702H65.6932V0.461024H71.3332V2.02102H67.6132V3.76102H71.0932V5.32102H67.6132V8.05702ZM74.1522 8.05702H72.2322V0.461024H77.8722V2.02102H74.1522V3.76102H77.6322V5.32102H74.1522V8.05702ZM78.7713 8.05702V0.461024H84.4113V2.02102H80.6913V3.46102H83.9193V5.02102H80.6913V6.49702H84.4113V8.05702H78.7713ZM85.369 8.05702V0.461024H91.009V2.02102H87.289V3.46102H90.517V5.02102H87.289V6.49702H91.009V8.05702H85.369Z" fill="white"/>
</svg>
